/* XPM */
static const char *del_xpm[] =
{
/* Columns rows colors chars-per-pixel. */
"21 21 3 1",
"  c black",
". c gray100",
"X c None",
/* Pixels. */
"XXX XXXXXXXXXXXX XXXX",
"XXXX XXX    XXX XXXXX",
"XXXXX X      X XXXXXX",
"XXXXXX XX  XX XXXXXXX",
"XXXXX  XX  XX  XXXXXX",
"XXXXX          XXXXXX",
"XXXXXX        XXXXXXX",
"XXXXXXX  XX  XXXXXXXX",
"XXXXXXX  XX XXXXXXXXX",
"XXXXXX X XX  XXXXXXXX",
"XXXX  XX    X  XXXXXX",
"XX  XXXXX  XXXX  XXXX",
"XXXXXXXXXXXXXXXXXXXXX",
"XX     XX     X XXXXX",
"XXX XXX X XXXXX XXXXX",
"XXX XXX X XXXXX XXXXX",
"XXX XXX X XXXXX XXXXX",
"XXX XXX X    XX XXXXX",
"XXX XXX X XXXXX XXXXX",
"XXX XXX X XXXXX XXXXX",
"XX     XX     X     X"
};
