/* XPM */
static const char *lock_xpm[] =
{
/* Columns rows colors chars-per-pixel. */
"21 21 3 1",
"  c black",
". c gray100",
"X c None",
/* Pixels. */
"XXXXXXXX     XXXXXXXX",
"XXXXXXX  XXX  XXXXXXX",
"XXXXXXX XXXXX XXXXXXX",
"XXXXXX  XXXXX  XXXXXX",
"XXXXXX XXXXXXX XXXXXX",
"XXXXXX XXXXXXX XXXXXX",
"XXXX             XXXX",
"XXXX XXXXXXXXXXX XXXX",
"XXXX             XXXX",
"XXXX XXXXXXXXXXX XXXX",
"XXXX             XXXX",
"XXXX XXXXXXXXXXX XXXX",
"XXXX             XXXX",
"XXXXXXXXXXXXXXXXXXXXX",
"XX XXXX  XXX  X XX XX",
"XX XXX XX X XXX XX XX",
"XX XXX XX X XXX X XXX",
"XX XXX XX X XXX  XXXX",
"XX XXX XX X XXX X XXX",
"XX XXX XX X XXX XX XX",
"XX   XX  XXX  X XX XX"
};
