/* XPM */
static const char *redo_xpm[] =
{
/* Columns rows colors chars-per-pixel. */
"16 16 4 1",
"  c None",
"# c #225D8D",
"+ c #1C79C1",
". c #38C5FF",
/* Pixels. */
"                ",
"      ++        ",
"    +#.+        ",
"   #..#         ",
"  +..#          ",
"  #.+           ",
" +..+   +###### ",
" #..+    #....# ",
" #..+     #...# ",
" #...#  ##....# ",
" #....++....#.# ",
" +.........# ## ",
"  +.......#   + ",
"  .+....##      ",
"    +##+        ",
"                "
};
