/* XPM */
static const char *WARNING_XPM[] =
{
/* Columns rows colors chars-per-pixel. */
"48 48 3 1",
"  c None",
"# c #000000",
". c #FFD000",
/* Pixels. */
"                                                ",
"                                                ",
"                                                ",
"                                                ",
"                       ##                       ",
"                      #..#                      ",
"                     #....#                     ",
"                     #....#                     ",
"                    #......#                    ",
"                    #......#                    ",
"                   #........#                   ",
"                  #..........#                  ",
"                  #..........#                  ",
"                 #............#                 ",
"                 #.....##.....#                 ",
"                #.....####.....#                ",
"               #.....######.....#               ",
"               #.....######.....#               ",
"              #......######......#              ",
"              #......######......#              ",
"             #.......######.......#             ",
"            #........######........#            ",
"            #........######........#            ",
"           #.........######.........#           ",
"           #.........######.........#           ",
"          #...........####...........#          ",
"         #............####............#         ",
"         #............####............#         ",
"        #.............####.............#        ",
"        #.............####.............#        ",
"       #..............####..............#       ",
"      #................##................#      ",
"      #..................................#      ",
"     #....................................#     ",
"     #................####................#     ",
"    #................######................#    ",
"   #.................######.................#   ",
"   #.................######.................#   ",
"  #..................######..................#  ",
"  #...................####...................#  ",
" #............................................# ",
"#..............................................#",
"#..............................................#",
" ############################################## ",
"                                                ",
"                                                ",
"                                                ",
"                                                "
};
